<?xml version="1.0" encoding="utf-8" standalone="no"?>
<!DOCTYPE svg PUBLIC "-//W3C//DTD SVG 1.1//EN"
  "http://www.w3.org/Graphics/SVG/1.1/DTD/svg11.dtd">
<svg xmlns:xlink="http://www.w3.org/1999/xlink" width="276.624pt" height="292.944pt" viewBox="0 0 276.624 292.944" xmlns="http://www.w3.org/2000/svg" version="1.1">
 <metadata>
  <rdf:RDF xmlns:dc="http://purl.org/dc/elements/1.1/" xmlns:cc="http://creativecommons.org/ns#" xmlns:rdf="http://www.w3.org/1999/02/22-rdf-syntax-ns#">
   <cc:Work>
    <dc:type rdf:resource="http://purl.org/dc/dcmitype/StillImage"/>
    <dc:date>2026-08-12T11:43:07.571510</dc:date>
    <dc:format>image/svg+xml</dc:format>
    <dc:creator>
     <cc:Agent>
      <dc:title>Matplotlib v3.11.1, https://matplotlib.org/</dc:title>
     </cc:Agent>
    </dc:creator>
   </cc:Work>
  </rdf:RDF>
 </metadata>
 <defs>
  <style type="text/css">*{stroke-linejoin: round; stroke-linecap: butt}</style>
 </defs>
 <g id="figure_1">
  <g id="patch_1">
   <path d="M 0 292.944 
L 276.624 292.944 
L 276.624 0 
L 0 0 
z
" style="fill: #ffffff"/>
  </g>
  <g id="axes_1">
   <g id="patch_2">
    <path d="M 10.8 282.144 
L 265.824 282.144 
L 265.824 27.12 
L 10.8 27.12 
z
" style="fill: #ffffff"/>
   </g>
   <g id="matplotlib.axis_1"/>
   <g id="matplotlib.axis_2"/>
   <g id="line2d_1">
    <path d="M 10.8 154.632 
L 265.824 154.632 
" clip-path="url(#pb3a5aeacc0)" style="fill: none; stroke: #666666; stroke-linecap: square"/>
   </g>
   <g id="line2d_2">
    <path d="M 138.312 282.144 
L 138.312 27.12 
" clip-path="url(#pb3a5aeacc0)" style="fill: none; stroke: #666666; stroke-linecap: square"/>
   </g>
   <g id="line2d_3">
    <path d="M 245.86169 146.009623 
L 245.416648 141.59837 
L 244.790752 137.209125 
L 243.985058 132.849301 
L 243.000927 128.526258 
L 241.840021 124.247297 
L 240.504299 120.019643 
L 238.996018 115.850434 
L 237.317723 111.746712 
L 235.47225 107.715404 
L 233.462715 103.763319 
L 231.292509 99.897129 
L 228.965299 96.123364 
L 226.485014 92.448395 
L 223.855842 88.878427 
L 221.082222 85.41949 
L 218.168839 82.077424 
L 215.120611 78.857871 
L 211.942685 75.76627 
L 208.640428 72.807839 
L 205.219417 69.987574 
L 201.685427 67.310239 
L 198.044426 64.780352 
L 194.302562 62.402188 
L 190.466153 60.179761 
L 186.541679 58.116823 
L 182.535764 56.216859 
L 178.455175 54.483077 
L 174.3068 52.918404 
L 170.097646 51.525482 
L 165.834819 50.306664 
L 161.525517 49.264007 
L 157.177018 48.399273 
L 152.796663 47.71392 
L 148.391851 47.209107 
L 143.970017 46.885687 
L 139.53863 46.744204 
L 135.105171 46.784898 
L 130.677127 47.0077 
L 126.261976 47.412234 
L 121.867171 47.997818 
L 117.500135 48.763461 
L 113.168242 49.707872 
L 108.878806 50.829455 
L 104.63907 52.126317 
L 100.456193 53.596268 
L 96.337239 55.236826 
L 92.289163 57.04522 
L 88.318799 59.018397 
L 84.432853 61.153025 
L 80.637887 63.4455 
L 76.940307 65.89195 
L 73.346359 68.488244 
L 69.862109 71.229999 
L 66.493443 74.112585 
L 63.246049 77.131134 
L 60.125409 80.28055 
L 57.136793 83.555514 
L 54.285247 86.950495 
L 51.575588 90.459763 
L 49.012389 94.07739 
L 46.599981 97.797268 
L 44.342434 101.613117 
L 42.243563 105.518492 
L 40.306911 109.506798 
L 38.535749 113.571303 
L 36.933066 117.705141 
L 35.501569 121.901333 
L 34.243676 126.152794 
L 33.16151 130.452344 
L 32.2569 134.792723 
L 31.531371 139.166602 
L 30.98615 143.566596 
L 30.622157 147.985275 
L 30.440007 152.415177 
L 30.440007 156.848823 
L 30.622157 161.278725 
L 30.98615 165.697404 
L 31.531371 170.097398 
L 32.2569 174.471277 
L 33.16151 178.811656 
L 34.243676 183.111206 
L 35.501569 187.362667 
L 36.933066 191.558859 
L 38.535749 195.692697 
L 40.306911 199.757202 
L 42.243563 203.745508 
L 44.342434 207.650883 
L 46.599981 211.466732 
L 49.012389 215.18661 
L 51.575588 218.804237 
L 54.285247 222.313505 
L 57.136793 225.708486 
L 60.125409 228.98345 
L 63.246049 232.132866 
L 66.493443 235.151415 
L 69.862109 238.034001 
L 73.346359 240.775756 
L 76.940307 243.37205 
L 80.637887 245.8185 
L 84.432853 248.110975 
L 88.318799 250.245603 
L 92.289163 252.21878 
L 96.337239 254.027174 
L 100.456193 255.667732 
L 104.63907 257.137683 
L 108.878806 258.434545 
L 113.168242 259.556128 
L 117.500135 260.500539 
L 121.867171 261.266182 
L 126.261976 261.851766 
L 130.677127 262.2563 
L 135.105171 262.479102 
L 139.53863 262.519796 
L 143.970017 262.378313 
L 148.391851 262.054893 
L 152.796663 261.55008 
L 157.177018 260.864727 
L 161.525517 259.999993 
L 165.834819 258.957336 
L 170.097646 257.738518 
L 174.3068 256.345596 
L 178.455175 254.780923 
L 182.535764 253.047141 
L 186.541679 251.147177 
L 190.466153 249.084239 
L 194.302562 246.861812 
L 198.044426 244.483648 
L 201.685427 241.953761 
L 205.219417 239.276426 
L 208.640428 236.456161 
L 211.942685 233.49773 
L 215.120611 230.406129 
L 218.168839 227.186576 
L 221.082222 223.84451 
L 223.855842 220.385573 
L 226.485014 216.815605 
L 228.965299 213.140636 
L 231.292509 209.366871 
L 233.462715 205.500681 
L 235.47225 201.548596 
L 237.317723 197.517288 
L 238.996018 193.413566 
L 240.504299 189.244357 
L 241.840021 185.016703 
L 243.000927 180.737742 
L 243.985058 176.414699 
L 244.790752 172.054875 
L 245.416648 167.66563 
L 245.86169 163.254377 
L 245.86169 163.254377 
" clip-path="url(#pb3a5aeacc0)" style="fill: none; stroke: #2f5f8f; stroke-width: 2; stroke-linecap: square"/>
   </g>
   <g id="line2d_4">
    <path d="M 155.422178 153.260258 
L 155.123623 151.166571 
L 154.569866 149.125489 
L 153.769313 147.167996 
L 152.734116 145.323808 
L 151.47999 143.620919 
L 150.025973 142.085179 
L 148.394136 140.739902 
L 146.609252 139.605507 
L 144.698414 138.699217 
L 142.69063 138.034787 
L 140.616378 137.622306 
L 138.507146 137.468032 
L 136.394951 137.57431 
L 134.311857 137.939525 
L 132.289485 138.558134 
L 130.358536 139.420745 
L 128.548322 140.514265 
L 126.886321 141.822093 
L 125.397762 143.324377 
L 124.105244 144.998312 
L 123.028385 146.818487 
L 122.183533 148.757272 
L 121.583513 150.785237 
L 121.237433 152.871595 
L 121.150547 154.984676 
L 121.324173 157.092404 
L 121.755676 159.162783 
L 122.438505 161.164384 
L 123.362296 163.066822 
L 124.513025 164.84122 
L 125.873224 166.46064 
L 127.422245 167.9005 
L 129.136573 169.138943 
L 130.990185 170.15717 
L 132.954943 170.939722 
L 135.001022 171.474722 
L 137.097361 171.754048 
L 139.212139 171.773459 
L 141.313253 171.532661 
L 143.368807 171.03531 
L 145.347599 170.288954 
L 147.219589 169.304925 
L 148.956362 168.098159 
L 150.531552 166.686975 
L 151.921248 165.092796 
L 153.104354 163.33982 
L 154.062911 161.45466 
L 154.782367 159.46593 
L 155.251801 157.403821 
L 155.422178 156.003742 
L 155.422178 156.003742 
" clip-path="url(#pb3a5aeacc0)" style="fill: none; stroke: #2a7a6b; stroke-width: 2; stroke-linecap: square"/>
   </g>
   <g id="line2d_5">
    <path d="M 155.477077 152.670277 
L 246.206769 150.708554 
" clip-path="url(#pb3a5aeacc0)" style="fill: none; stroke: #c47a2c; stroke-width: 1.6; stroke-linecap: square"/>
   </g>
   <g id="line2d_6">
    <path d="M 155.477077 156.593723 
L 246.206769 158.555446 
" clip-path="url(#pb3a5aeacc0)" style="fill: none; stroke: #c47a2c; stroke-width: 1.6; stroke-linecap: square"/>
   </g>
   <g id="line2d_7">
    <defs>
     <path id="m24f44d2dbd" d="M 0 2.5 
C 0.663008 2.5 1.29895 2.236584 1.767767 1.767767 
C 2.236584 1.29895 2.5 0.663008 2.5 0 
C 2.5 -0.663008 2.236584 -1.29895 1.767767 -1.767767 
C 1.29895 -2.236584 0.663008 -2.5 0 -2.5 
C -0.663008 -2.5 -1.29895 -2.236584 -1.767767 -1.767767 
C -2.236584 -1.29895 -2.5 -0.663008 -2.5 0 
C -2.5 0.663008 -2.236584 1.29895 -1.767767 1.767767 
C -1.29895 2.236584 -0.663008 2.5 0 2.5 
z
" style="stroke: #a33b3b"/>
    </defs>
    <g clip-path="url(#pb3a5aeacc0)">
     <use xlink:href="#m24f44d2dbd" x="138.312" y="154.632" style="fill: #a33b3b; stroke: #a33b3b"/>
    </g>
   </g>
   <g id="text_1">
    <!-- $\mathrm{Re}$ -->
    <g style="fill: #666666" transform="translate(241.54304 174.881477)">
     <text>
      <tspan x="0" y="-0.984375" style="font-size: 11px; font-family: 'DejaVu Sans'; fill: #666666">R</tspan>
      <tspan x="7.643066" y="-0.984375" style="font-size: 11px; font-family: 'DejaVu Sans'; fill: #666666">e</tspan>
     </text>
    </g>
   </g>
   <g id="text_2">
    <!-- $\mathrm{Im}$ -->
    <g style="fill: #666666" transform="translate(142.235446 46.78096)">
     <text>
      <tspan x="0" y="-0.984375" style="font-size: 11px; font-family: 'DejaVu Sans'; fill: #666666">I</tspan>
      <tspan x="3.244141" y="-0.984375" style="font-size: 11px; font-family: 'DejaVu Sans'; fill: #666666">m</tspan>
     </text>
    </g>
   </g>
   <g id="text_3">
    <text style="font-size: 10px; font-family: 'PingFang SC', 'Heiti SC', 'Arial Unicode MS', 'DejaVu Sans', sans-serif; text-anchor: start; fill: #666666" x="20.608615" y="46.737231" transform="rotate(-0 20.608615 46.737231)">keyhole / branch cut contour</text>
   </g>
   <g id="text_4">
    <!-- Contour for $x^{\alpha}$ integrals -->
    <g transform="translate(71.292 21.12)">
     <text>
      <tspan x="0" y="-0.329937" style="font-size: 12px; font-family: 'PingFang SC'">C</tspan>
      <tspan x="8.736069" y="-0.329937" style="font-size: 12px; font-family: 'PingFang SC'">o</tspan>
      <tspan x="15.768112" y="-0.329937" style="font-size: 12px; font-family: 'PingFang SC'">n</tspan>
      <tspan x="22.476166" y="-0.329937" style="font-size: 12px; font-family: 'PingFang SC'">t</tspan>
      <tspan x="26.736191" y="-0.329937" style="font-size: 12px; font-family: 'PingFang SC'">o</tspan>
      <tspan x="33.768234" y="-0.329937" style="font-size: 12px; font-family: 'PingFang SC'">u</tspan>
      <tspan x="40.488281" y="-0.329937" style="font-size: 12px; font-family: 'PingFang SC'">r</tspan>
      <tspan x="44.868317" y="-0.329937" style="font-size: 12px; font-family: 'PingFang SC'"> </tspan>
      <tspan x="48.864349" y="-0.329937" style="font-size: 12px; font-family: 'PingFang SC'">f</tspan>
      <tspan x="53.340378" y="-0.329937" style="font-size: 12px; font-family: 'PingFang SC'">o</tspan>
      <tspan x="60.372421" y="-0.329937" style="font-size: 12px; font-family: 'PingFang SC'">r</tspan>
      <tspan x="64.752457" y="-0.329937" style="font-size: 12px; font-family: 'PingFang SC'"> </tspan>
      <tspan x="82.251224" y="-0.329937" style="font-size: 12px; font-family: 'PingFang SC'"> </tspan>
      <tspan x="86.247256" y="-0.329937" style="font-size: 12px; font-family: 'PingFang SC'">i</tspan>
      <tspan x="89.319278" y="-0.329937" style="font-size: 12px; font-family: 'PingFang SC'">n</tspan>
      <tspan x="96.027332" y="-0.329937" style="font-size: 12px; font-family: 'PingFang SC'">t</tspan>
      <tspan x="100.287357" y="-0.329937" style="font-size: 12px; font-family: 'PingFang SC'">e</tspan>
      <tspan x="106.947406" y="-0.329937" style="font-size: 12px; font-family: 'PingFang SC'">g</tspan>
      <tspan x="114.039462" y="-0.329937" style="font-size: 12px; font-family: 'PingFang SC'">r</tspan>
      <tspan x="118.419498" y="-0.329937" style="font-size: 12px; font-family: 'PingFang SC'">a</tspan>
      <tspan x="125.127551" y="-0.329937" style="font-size: 12px; font-family: 'PingFang SC'">l</tspan>
      <tspan x="127.947574" y="-0.329937" style="font-size: 12px; font-family: 'PingFang SC'">s</tspan>
      <tspan x="68.748489" y="-0.329937" style="font-style: oblique; font-size: 12px; font-family: 'DejaVu Sans'">x</tspan>
      <tspan x="76.385989" y="-5.285937" style="font-style: oblique; font-size: 8.4px; font-family: 'DejaVu Sans'">α</tspan>
     </text>
    </g>
   </g>
  </g>
 </g>
 <defs>
  <clipPath id="pb3a5aeacc0">
   <rect x="10.8" y="27.12" width="255.024" height="255.024"/>
  </clipPath>
 </defs>
</svg>
