<?xml version="1.0" encoding="UTF-8"?>
<svg xmlns="http://www.w3.org/2000/svg" xmlns:xlink="http://www.w3.org/1999/xlink" width="214.14pt" height="191.44pt" viewBox="0 0 214.14 191.44">
<defs>
<g>
<g id="glyph-0-0">
<path d="M 3.71875 -6.09375 C 3.78125 -6.328125 3.8125 -6.421875 4 -6.453125 C 4.09375 -6.46875 4.40625 -6.46875 4.609375 -6.46875 C 5.3125 -6.46875 6.40625 -6.46875 6.40625 -5.484375 C 6.40625 -5.15625 6.25 -4.46875 5.859375 -4.078125 C 5.609375 -3.8125 5.078125 -3.5 4.1875 -3.5 L 3.078125 -3.5 Z M 5.15625 -3.375 C 6.15625 -3.59375 7.328125 -4.28125 7.328125 -5.28125 C 7.328125 -6.140625 6.4375 -6.78125 5.140625 -6.78125 L 2.3125 -6.78125 C 2.109375 -6.78125 2.03125 -6.78125 2.03125 -6.578125 C 2.03125 -6.46875 2.109375 -6.46875 2.296875 -6.46875 C 2.328125 -6.46875 2.515625 -6.46875 2.671875 -6.453125 C 2.859375 -6.421875 2.953125 -6.421875 2.953125 -6.296875 C 2.953125 -6.25 2.9375 -6.21875 2.90625 -6.109375 L 1.578125 -0.78125 C 1.484375 -0.390625 1.453125 -0.3125 0.671875 -0.3125 C 0.5 -0.3125 0.40625 -0.3125 0.40625 -0.109375 C 0.40625 0 0.53125 0 0.546875 0 C 0.828125 0 1.515625 -0.03125 1.796875 -0.03125 C 2.078125 -0.03125 2.78125 0 3.0625 0 C 3.140625 0 3.25 0 3.25 -0.203125 C 3.25 -0.3125 3.171875 -0.3125 2.96875 -0.3125 C 2.609375 -0.3125 2.328125 -0.3125 2.328125 -0.484375 C 2.328125 -0.546875 2.34375 -0.59375 2.359375 -0.65625 L 3.015625 -3.28125 L 4.203125 -3.28125 C 5.09375 -3.28125 5.28125 -2.734375 5.28125 -2.375 C 5.28125 -2.234375 5.203125 -1.921875 5.140625 -1.703125 C 5.0625 -1.421875 4.984375 -1.046875 4.984375 -0.859375 C 4.984375 0.21875 6.171875 0.21875 6.296875 0.21875 C 7.140625 0.21875 7.484375 -0.78125 7.484375 -0.921875 C 7.484375 -1.046875 7.375 -1.046875 7.375 -1.046875 C 7.28125 -1.046875 7.265625 -0.96875 7.25 -0.90625 C 7 -0.171875 6.5625 0 6.34375 0 C 6.015625 0 5.9375 -0.21875 5.9375 -0.609375 C 5.9375 -0.90625 6 -1.421875 6.046875 -1.734375 C 6.0625 -1.875 6.078125 -2.0625 6.078125 -2.203125 C 6.078125 -2.96875 5.421875 -3.28125 5.15625 -3.375 Z M 5.15625 -3.375 "/>
</g>
<g id="glyph-0-1">
<path d="M 4.640625 -3.6875 C 4.640625 -4.234375 4.390625 -4.390625 4.203125 -4.390625 C 3.953125 -4.390625 3.71875 -4.125 3.71875 -3.90625 C 3.71875 -3.78125 3.765625 -3.71875 3.875 -3.609375 C 4.09375 -3.40625 4.21875 -3.15625 4.21875 -2.796875 C 4.21875 -2.375 3.609375 -0.109375 2.453125 -0.109375 C 1.9375 -0.109375 1.71875 -0.453125 1.71875 -0.96875 C 1.71875 -1.53125 1.984375 -2.25 2.296875 -3.078125 C 2.359375 -3.25 2.40625 -3.390625 2.40625 -3.578125 C 2.40625 -4.015625 2.09375 -4.390625 1.59375 -4.390625 C 0.671875 -4.390625 0.28125 -2.953125 0.28125 -2.859375 C 0.28125 -2.765625 0.390625 -2.765625 0.40625 -2.765625 C 0.5 -2.765625 0.515625 -2.78125 0.5625 -2.9375 C 0.859375 -3.9375 1.28125 -4.171875 1.5625 -4.171875 C 1.640625 -4.171875 1.8125 -4.171875 1.8125 -3.84375 C 1.8125 -3.609375 1.71875 -3.328125 1.640625 -3.15625 C 1.203125 -2 1.078125 -1.546875 1.078125 -1.125 C 1.078125 -0.046875 1.953125 0.109375 2.40625 0.109375 C 4.078125 0.109375 4.640625 -3.171875 4.640625 -3.6875 Z M 4.640625 -3.6875 "/>
</g>
<g id="glyph-0-2">
<path d="M 2.8125 -6.203125 C 2.8125 -6.40625 2.671875 -6.5625 2.453125 -6.5625 C 2.1875 -6.5625 1.921875 -6.296875 1.921875 -6.03125 C 1.921875 -5.84375 2.046875 -5.671875 2.296875 -5.671875 C 2.515625 -5.671875 2.8125 -5.90625 2.8125 -6.203125 Z M 2.0625 -2.46875 C 2.1875 -2.765625 2.1875 -2.78125 2.28125 -3.046875 C 2.359375 -3.25 2.40625 -3.390625 2.40625 -3.578125 C 2.40625 -4.015625 2.09375 -4.390625 1.59375 -4.390625 C 0.671875 -4.390625 0.28125 -2.953125 0.28125 -2.859375 C 0.28125 -2.765625 0.390625 -2.765625 0.40625 -2.765625 C 0.5 -2.765625 0.515625 -2.78125 0.5625 -2.9375 C 0.828125 -3.875 1.234375 -4.171875 1.5625 -4.171875 C 1.640625 -4.171875 1.8125 -4.171875 1.8125 -3.84375 C 1.8125 -3.640625 1.75 -3.4375 1.703125 -3.328125 C 1.625 -3.078125 1.1875 -1.921875 1.015625 -1.5 C 0.921875 -1.234375 0.796875 -0.90625 0.796875 -0.703125 C 0.796875 -0.234375 1.125 0.109375 1.609375 0.109375 C 2.546875 0.109375 2.90625 -1.328125 2.90625 -1.421875 C 2.90625 -1.515625 2.8125 -1.515625 2.78125 -1.515625 C 2.6875 -1.515625 2.6875 -1.484375 2.640625 -1.34375 C 2.453125 -0.71875 2.140625 -0.109375 1.625 -0.109375 C 1.453125 -0.109375 1.390625 -0.203125 1.390625 -0.4375 C 1.390625 -0.6875 1.453125 -0.828125 1.671875 -1.421875 Z M 2.0625 -2.46875 "/>
</g>
<g id="glyph-1-0">
<path d="M 2.328125 -4.421875 C 2.328125 -4.609375 2.3125 -4.609375 2.125 -4.609375 C 1.671875 -4.171875 1.046875 -4.171875 0.765625 -4.171875 L 0.765625 -3.921875 C 0.921875 -3.921875 1.390625 -3.921875 1.765625 -4.109375 L 1.765625 -0.5625 C 1.765625 -0.34375 1.765625 -0.25 1.078125 -0.25 L 0.8125 -0.25 L 0.8125 0 C 0.9375 0 1.78125 -0.03125 2.046875 -0.03125 C 2.265625 -0.03125 3.140625 0 3.28125 0 L 3.28125 -0.25 L 3.03125 -0.25 C 2.328125 -0.25 2.328125 -0.34375 2.328125 -0.5625 Z M 2.328125 -4.421875 "/>
</g>
<g id="glyph-2-0">
<path d="M 6.53125 -2.28125 C 6.703125 -2.28125 6.890625 -2.28125 6.890625 -2.484375 C 6.890625 -2.671875 6.703125 -2.671875 6.53125 -2.671875 L 1.171875 -2.671875 C 1 -2.671875 0.828125 -2.671875 0.828125 -2.484375 C 0.828125 -2.28125 1 -2.28125 1.171875 -2.28125 Z M 6.53125 -2.28125 "/>
</g>
<g id="glyph-3-0">
<path d="M 4.0625 -2.28125 L 6.828125 -2.28125 C 6.96875 -2.28125 7.15625 -2.28125 7.15625 -2.484375 C 7.15625 -2.671875 6.96875 -2.671875 6.828125 -2.671875 L 4.0625 -2.671875 L 4.0625 -5.453125 C 4.0625 -5.59375 4.0625 -5.78125 3.859375 -5.78125 C 3.65625 -5.78125 3.65625 -5.59375 3.65625 -5.453125 L 3.65625 -2.671875 L 0.890625 -2.671875 C 0.75 -2.671875 0.5625 -2.671875 0.5625 -2.484375 C 0.5625 -2.28125 0.75 -2.28125 0.890625 -2.28125 L 3.65625 -2.28125 L 3.65625 0.5 C 3.65625 0.640625 3.65625 0.828125 3.859375 0.828125 C 4.0625 0.828125 4.0625 0.640625 4.0625 0.5 Z M 4.0625 -2.28125 "/>
</g>
<g id="glyph-4-0">
<path d="M 3 -2.609375 C 2.8125 -2.578125 2.703125 -2.421875 2.703125 -2.28125 C 2.703125 -2.125 2.84375 -2.0625 2.9375 -2.0625 C 3 -2.0625 3.265625 -2.109375 3.265625 -2.46875 C 3.265625 -2.90625 2.765625 -3.0625 2.34375 -3.0625 C 1.265625 -3.0625 1.0625 -2.265625 1.0625 -2.046875 C 1.0625 -1.796875 1.203125 -1.625 1.3125 -1.546875 C 1.484375 -1.40625 1.609375 -1.375 2.09375 -1.296875 C 2.234375 -1.265625 2.6875 -1.1875 2.6875 -0.828125 C 2.6875 -0.71875 2.609375 -0.453125 2.3125 -0.28125 C 2.046875 -0.125 1.703125 -0.125 1.625 -0.125 C 1.34375 -0.125 0.953125 -0.1875 0.78125 -0.421875 C 1.015625 -0.4375 1.171875 -0.625 1.171875 -0.8125 C 1.171875 -0.984375 1.046875 -1.078125 0.890625 -1.078125 C 0.703125 -1.078125 0.5 -0.90625 0.5 -0.609375 C 0.5 -0.1875 0.9375 0.0625 1.609375 0.0625 C 2.890625 0.0625 3.125 -0.8125 3.125 -1.078125 C 3.125 -1.71875 2.421875 -1.84375 2.171875 -1.890625 C 2.109375 -1.90625 1.9375 -1.9375 1.890625 -1.953125 C 1.640625 -2 1.515625 -2.140625 1.515625 -2.296875 C 1.515625 -2.453125 1.640625 -2.640625 1.78125 -2.734375 C 1.96875 -2.859375 2.21875 -2.875 2.34375 -2.875 C 2.484375 -2.875 2.84375 -2.84375 3 -2.609375 Z M 3 -2.609375 "/>
</g>
</g>
</defs>
<path fill="none" stroke-width="0.79701" stroke-linecap="round" stroke-linejoin="round" stroke="rgb(0%, 0%, 0%)" stroke-opacity="1" stroke-miterlimit="10" d="M -0.000901767 -0.00185568 L -0.000901767 59.529237 " transform="matrix(0.996, 0, 0, -0.996, 19.188398, 186.412214)"/>
<path fill="none" stroke-width="0.79701" stroke-linecap="round" stroke-linejoin="round" stroke="rgb(0%, 0%, 0%)" stroke-opacity="1" stroke-miterlimit="10" d="M -0.000901767 89.292823 L -0.000901767 148.819994 L 65.479771 148.819994 " transform="matrix(0.996, 0, 0, -0.996, 19.188398, 186.412214)"/>
<path fill="none" stroke-width="0.79701" stroke-linecap="round" stroke-linejoin="round" stroke="rgb(0%, 0%, 0%)" stroke-opacity="1" stroke-miterlimit="10" d="M 125.010864 148.819994 L 190.491537 148.819994 L 190.491537 -0.00185568 L -0.000901767 -0.00185568 " transform="matrix(0.996, 0, 0, -0.996, 19.188398, 186.412214)"/>
<path fill="none" stroke-width="0.79701" stroke-linecap="round" stroke-linejoin="round" stroke="rgb(0%, 0%, 0%)" stroke-opacity="1" stroke-miterlimit="10" d="M 65.479771 139.893664 L 65.479771 157.750246 L 125.010864 157.750246 L 125.010864 139.893664 Z M 65.479771 139.893664 " transform="matrix(0.996, 0, 0, -0.996, 19.188398, 186.412214)"/>
<g fill="rgb(0%, 0%, 0%)" fill-opacity="1">
<use xlink:href="#glyph-0-0" x="108.059904" y="24.298553"/>
</g>
<g fill="rgb(0%, 0%, 0%)" fill-opacity="1">
<use xlink:href="#glyph-1-0" x="115.594176" y="25.786956"/>
</g>
<path fill="none" stroke-width="0.79701" stroke-linecap="round" stroke-linejoin="round" stroke="rgb(0%, 0%, 0%)" stroke-opacity="1" stroke-miterlimit="10" d="M 14.882852 74.409069 C 14.882852 82.629451 8.21948 89.292823 -0.000901767 89.292823 C -8.217361 89.292823 -14.880734 82.629451 -14.880734 74.409069 C -14.880734 66.19261 -8.217361 59.529237 -0.000901767 59.529237 C 8.21948 59.529237 14.882852 66.19261 14.882852 74.409069 Z M 14.882852 74.409069 " transform="matrix(0.996, 0, 0, -0.996, 19.188398, 186.412214)"/>
<g fill="rgb(0%, 0%, 0%)" fill-opacity="1">
<use xlink:href="#glyph-2-0" x="15.329476" y="107.072448"/>
</g>
<g fill="rgb(0%, 0%, 0%)" fill-opacity="1">
<use xlink:href="#glyph-3-0" x="15.329476" y="122.48759"/>
</g>
<g fill="rgb(0%, 0%, 0%)" fill-opacity="1">
<use xlink:href="#glyph-0-1" x="38.999067" y="113.691246"/>
</g>
<g fill="rgb(0%, 0%, 0%)" fill-opacity="1">
<use xlink:href="#glyph-4-0" x="43.808891" y="115.179649"/>
</g>
<g fill="rgb(0%, 0%, 0%)" fill-opacity="1">
<use xlink:href="#glyph-1-0" x="47.55407" y="115.179649"/>
</g>
<path fill="none" stroke-width="0.79701" stroke-linecap="round" stroke-linejoin="round" stroke="rgb(0%, 0%, 0%)" stroke-opacity="1" stroke-miterlimit="10" d="M 55.063104 168.166913 L 132.83513 168.166913 " transform="matrix(0.996, 0, 0, -0.996, 19.188398, 186.412214)"/>
<path fill-rule="nonzero" fill="rgb(0%, 0%, 0%)" fill-opacity="1" d="M 154.074219 18.917969 L 149.945312 16.851562 L 151.492188 18.917969 L 149.945312 20.980469 "/>
<g fill="rgb(0%, 0%, 0%)" fill-opacity="1">
<use xlink:href="#glyph-0-2" x="110.11781" y="13.923012"/>
</g>
<g fill="rgb(0%, 0%, 0%)" fill-opacity="1">
<use xlink:href="#glyph-1-0" x="113.536341" y="15.411414"/>
</g>
</svg>
