<?xml version="1.0" encoding="UTF-8"?>
<svg xmlns="http://www.w3.org/2000/svg" xmlns:xlink="http://www.w3.org/1999/xlink" width="179.34pt" height="76.8pt" viewBox="0 0 179.34 76.8">
<defs>
<g>
<g id="glyph-0-0">
<path d="M 7.546875 -6.890625 C 7.546875 -6.921875 7.515625 -7 7.4375 -7 C 7.40625 -7 7.390625 -6.984375 7.28125 -6.875 L 6.59375 -6.109375 C 6.5 -6.25 6.046875 -7 4.9375 -7 C 2.734375 -7 0.5 -4.796875 0.5 -2.5 C 0.5 -0.859375 1.671875 0.21875 3.1875 0.21875 C 4.046875 0.21875 4.796875 -0.171875 5.328125 -0.640625 C 6.25 -1.453125 6.421875 -2.34375 6.421875 -2.375 C 6.421875 -2.484375 6.3125 -2.484375 6.296875 -2.484375 C 6.234375 -2.484375 6.1875 -2.453125 6.171875 -2.375 C 6.078125 -2.09375 5.859375 -1.390625 5.171875 -0.8125 C 4.484375 -0.265625 3.859375 -0.09375 3.34375 -0.09375 C 2.453125 -0.09375 1.40625 -0.609375 1.40625 -2.15625 C 1.40625 -2.71875 1.609375 -4.328125 2.59375 -5.484375 C 3.203125 -6.1875 4.140625 -6.6875 5.015625 -6.6875 C 6.03125 -6.6875 6.625 -5.921875 6.625 -4.765625 C 6.625 -4.375 6.59375 -4.359375 6.59375 -4.265625 C 6.59375 -4.171875 6.703125 -4.171875 6.734375 -4.171875 C 6.859375 -4.171875 6.859375 -4.1875 6.921875 -4.359375 Z M 7.546875 -6.890625 "/>
</g>
<g id="glyph-0-1">
<path d="M 3.703125 -6 C 3.796875 -6.359375 3.828125 -6.46875 4.765625 -6.46875 C 5.0625 -6.46875 5.140625 -6.46875 5.140625 -6.65625 C 5.140625 -6.78125 5.03125 -6.78125 4.984375 -6.78125 C 4.65625 -6.78125 3.84375 -6.75 3.515625 -6.75 C 3.21875 -6.75 2.484375 -6.78125 2.1875 -6.78125 C 2.125 -6.78125 2 -6.78125 2 -6.578125 C 2 -6.46875 2.09375 -6.46875 2.28125 -6.46875 C 2.296875 -6.46875 2.484375 -6.46875 2.65625 -6.453125 C 2.84375 -6.421875 2.921875 -6.421875 2.921875 -6.296875 C 2.921875 -6.25 2.921875 -6.21875 2.890625 -6.109375 L 1.5625 -0.78125 C 1.453125 -0.390625 1.4375 -0.3125 0.65625 -0.3125 C 0.484375 -0.3125 0.390625 -0.3125 0.390625 -0.109375 C 0.390625 0 0.46875 0 0.65625 0 L 5.25 0 C 5.484375 0 5.5 0 5.5625 -0.171875 L 6.34375 -2.3125 C 6.375 -2.421875 6.375 -2.4375 6.375 -2.453125 C 6.375 -2.484375 6.34375 -2.5625 6.265625 -2.5625 C 6.171875 -2.5625 6.15625 -2.515625 6.09375 -2.34375 C 5.75 -1.4375 5.3125 -0.3125 3.609375 -0.3125 L 2.671875 -0.3125 C 2.53125 -0.3125 2.515625 -0.3125 2.453125 -0.3125 C 2.34375 -0.328125 2.328125 -0.34375 2.328125 -0.421875 C 2.328125 -0.453125 2.328125 -0.46875 2.375 -0.640625 Z M 3.703125 -6 "/>
</g>
<g id="glyph-0-2">
<path d="M 3.71875 -6.09375 C 3.78125 -6.328125 3.8125 -6.421875 4 -6.453125 C 4.09375 -6.46875 4.40625 -6.46875 4.609375 -6.46875 C 5.3125 -6.46875 6.40625 -6.46875 6.40625 -5.484375 C 6.40625 -5.15625 6.25 -4.46875 5.859375 -4.078125 C 5.609375 -3.8125 5.078125 -3.5 4.1875 -3.5 L 3.078125 -3.5 Z M 5.15625 -3.375 C 6.15625 -3.59375 7.328125 -4.28125 7.328125 -5.28125 C 7.328125 -6.140625 6.4375 -6.78125 5.140625 -6.78125 L 2.3125 -6.78125 C 2.109375 -6.78125 2.03125 -6.78125 2.03125 -6.578125 C 2.03125 -6.46875 2.109375 -6.46875 2.296875 -6.46875 C 2.328125 -6.46875 2.515625 -6.46875 2.671875 -6.453125 C 2.859375 -6.421875 2.953125 -6.421875 2.953125 -6.296875 C 2.953125 -6.25 2.9375 -6.21875 2.90625 -6.109375 L 1.578125 -0.78125 C 1.484375 -0.390625 1.453125 -0.3125 0.671875 -0.3125 C 0.5 -0.3125 0.40625 -0.3125 0.40625 -0.109375 C 0.40625 0 0.53125 0 0.546875 0 C 0.828125 0 1.515625 -0.03125 1.796875 -0.03125 C 2.078125 -0.03125 2.78125 0 3.0625 0 C 3.140625 0 3.25 0 3.25 -0.203125 C 3.25 -0.3125 3.171875 -0.3125 2.96875 -0.3125 C 2.609375 -0.3125 2.328125 -0.3125 2.328125 -0.484375 C 2.328125 -0.546875 2.34375 -0.59375 2.359375 -0.65625 L 3.015625 -3.28125 L 4.203125 -3.28125 C 5.09375 -3.28125 5.28125 -2.734375 5.28125 -2.375 C 5.28125 -2.234375 5.203125 -1.921875 5.140625 -1.703125 C 5.0625 -1.421875 4.984375 -1.046875 4.984375 -0.859375 C 4.984375 0.21875 6.171875 0.21875 6.296875 0.21875 C 7.140625 0.21875 7.484375 -0.78125 7.484375 -0.921875 C 7.484375 -1.046875 7.375 -1.046875 7.375 -1.046875 C 7.28125 -1.046875 7.265625 -0.96875 7.25 -0.90625 C 7 -0.171875 6.5625 0 6.34375 0 C 6.015625 0 5.9375 -0.21875 5.9375 -0.609375 C 5.9375 -0.90625 6 -1.421875 6.046875 -1.734375 C 6.0625 -1.875 6.078125 -2.0625 6.078125 -2.203125 C 6.078125 -2.96875 5.421875 -3.28125 5.15625 -3.375 Z M 5.15625 -3.375 "/>
</g>
<g id="glyph-0-3">
<path d="M 4.640625 -3.6875 C 4.640625 -4.234375 4.390625 -4.390625 4.203125 -4.390625 C 3.953125 -4.390625 3.71875 -4.125 3.71875 -3.90625 C 3.71875 -3.78125 3.765625 -3.71875 3.875 -3.609375 C 4.09375 -3.40625 4.21875 -3.15625 4.21875 -2.796875 C 4.21875 -2.375 3.609375 -0.109375 2.453125 -0.109375 C 1.9375 -0.109375 1.71875 -0.453125 1.71875 -0.96875 C 1.71875 -1.53125 1.984375 -2.25 2.296875 -3.078125 C 2.359375 -3.25 2.40625 -3.390625 2.40625 -3.578125 C 2.40625 -4.015625 2.09375 -4.390625 1.59375 -4.390625 C 0.671875 -4.390625 0.28125 -2.953125 0.28125 -2.859375 C 0.28125 -2.765625 0.390625 -2.765625 0.40625 -2.765625 C 0.5 -2.765625 0.515625 -2.78125 0.5625 -2.9375 C 0.859375 -3.9375 1.28125 -4.171875 1.5625 -4.171875 C 1.640625 -4.171875 1.8125 -4.171875 1.8125 -3.84375 C 1.8125 -3.609375 1.71875 -3.328125 1.640625 -3.15625 C 1.203125 -2 1.078125 -1.546875 1.078125 -1.125 C 1.078125 -0.046875 1.953125 0.109375 2.40625 0.109375 C 4.078125 0.109375 4.640625 -3.171875 4.640625 -3.6875 Z M 4.640625 -3.6875 "/>
</g>
<g id="glyph-0-4">
<path d="M 2.046875 -3.96875 L 2.96875 -3.96875 C 3.171875 -3.96875 3.28125 -3.96875 3.28125 -4.171875 C 3.28125 -4.28125 3.171875 -4.28125 3 -4.28125 L 2.125 -4.28125 C 2.484375 -5.6875 2.53125 -5.890625 2.53125 -5.9375 C 2.53125 -6.109375 2.40625 -6.21875 2.25 -6.21875 C 2.21875 -6.21875 1.9375 -6.203125 1.84375 -5.859375 L 1.453125 -4.28125 L 0.53125 -4.28125 C 0.328125 -4.28125 0.234375 -4.28125 0.234375 -4.09375 C 0.234375 -3.96875 0.3125 -3.96875 0.5 -3.96875 L 1.375 -3.96875 C 0.671875 -1.15625 0.625 -0.984375 0.625 -0.796875 C 0.625 -0.265625 1 0.109375 1.53125 0.109375 C 2.546875 0.109375 3.109375 -1.34375 3.109375 -1.421875 C 3.109375 -1.515625 3.03125 -1.515625 3 -1.515625 C 2.90625 -1.515625 2.890625 -1.484375 2.84375 -1.375 C 2.421875 -0.34375 1.890625 -0.109375 1.5625 -0.109375 C 1.34375 -0.109375 1.25 -0.234375 1.25 -0.5625 C 1.25 -0.796875 1.265625 -0.875 1.3125 -1.046875 Z M 2.046875 -3.96875 "/>
</g>
<g id="glyph-1-0">
<path d="M 3.28125 2.375 C 3.28125 2.34375 3.28125 2.328125 3.109375 2.15625 C 1.875 0.90625 1.5625 -0.96875 1.5625 -2.484375 C 1.5625 -4.203125 1.9375 -5.9375 3.15625 -7.171875 C 3.28125 -7.296875 3.28125 -7.3125 3.28125 -7.34375 C 3.28125 -7.40625 3.25 -7.4375 3.1875 -7.4375 C 3.078125 -7.4375 2.1875 -6.765625 1.609375 -5.5 C 1.09375 -4.421875 0.984375 -3.3125 0.984375 -2.484375 C 0.984375 -1.703125 1.09375 -0.5 1.640625 0.609375 C 2.234375 1.828125 3.078125 2.484375 3.1875 2.484375 C 3.25 2.484375 3.28125 2.453125 3.28125 2.375 Z M 3.28125 2.375 "/>
</g>
<g id="glyph-1-1">
<path d="M 2.875 -2.484375 C 2.875 -3.25 2.765625 -4.453125 2.21875 -5.578125 C 1.625 -6.796875 0.765625 -7.4375 0.671875 -7.4375 C 0.609375 -7.4375 0.5625 -7.40625 0.5625 -7.34375 C 0.5625 -7.3125 0.5625 -7.296875 0.75 -7.109375 C 1.71875 -6.125 2.296875 -4.546875 2.296875 -2.484375 C 2.296875 -0.78125 1.921875 0.96875 0.6875 2.21875 C 0.5625 2.328125 0.5625 2.34375 0.5625 2.375 C 0.5625 2.4375 0.609375 2.484375 0.671875 2.484375 C 0.765625 2.484375 1.65625 1.8125 2.25 0.546875 C 2.75 -0.546875 2.875 -1.640625 2.875 -2.484375 Z M 2.875 -2.484375 "/>
</g>
</g>
</defs>
<path fill="none" stroke-width="0.79701" stroke-linecap="butt" stroke-linejoin="miter" stroke="rgb(0%, 0%, 0%)" stroke-opacity="1" stroke-miterlimit="10" d="M -0.000290549 68.031362 L 147.403471 68.031362 " transform="matrix(0.996333, 0, 0, -0.996333, 4.367477, 72.19207)"/>
<path fill="none" stroke-width="0.79701" stroke-linecap="butt" stroke-linejoin="miter" stroke="rgb(0%, 0%, 0%)" stroke-opacity="1" stroke-miterlimit="10" d="M -0.000290549 0.000665948 L 147.403471 0.000665948 " transform="matrix(0.996333, 0, 0, -0.996333, 4.367477, 72.19207)"/>
<path fill="none" stroke-width="0.79701" stroke-linecap="butt" stroke-linejoin="miter" stroke="rgb(0%, 0%, 0%)" stroke-opacity="1" stroke-miterlimit="10" d="M 28.345833 68.031362 L 28.345833 43.939117 " transform="matrix(0.996333, 0, 0, -0.996333, 4.367477, 72.19207)"/>
<path fill="none" stroke-width="0.79701" stroke-linecap="butt" stroke-linejoin="miter" stroke="rgb(0%, 0%, 0%)" stroke-opacity="1" stroke-miterlimit="10" d="M 17.007383 43.939117 L 39.684282 43.939117 " transform="matrix(0.996333, 0, 0, -0.996333, 4.367477, 72.19207)"/>
<path fill="none" stroke-width="0.79701" stroke-linecap="butt" stroke-linejoin="miter" stroke="rgb(0%, 0%, 0%)" stroke-opacity="1" stroke-miterlimit="10" d="M 17.007383 35.43528 L 39.684282 35.43528 " transform="matrix(0.996333, 0, 0, -0.996333, 4.367477, 72.19207)"/>
<path fill="none" stroke-width="0.79701" stroke-linecap="butt" stroke-linejoin="miter" stroke="rgb(0%, 0%, 0%)" stroke-opacity="1" stroke-miterlimit="10" d="M 28.345833 35.43528 L 28.345833 0.000665948 " transform="matrix(0.996333, 0, 0, -0.996333, 4.367477, 72.19207)"/>
<g fill="rgb(0%, 0%, 0%)" fill-opacity="1">
<use xlink:href="#glyph-0-0" x="8.391199" y="36.043682"/>
</g>
<path fill="none" stroke-width="0.79701" stroke-linecap="butt" stroke-linejoin="miter" stroke="rgb(0%, 0%, 0%)" stroke-opacity="1" stroke-miterlimit="10" d="M 79.372775 68.031362 L 79.372775 55.277567 " transform="matrix(0.996333, 0, 0, -0.996333, 4.367477, 72.19207)"/>
<path fill="none" stroke-width="0.79701" stroke-linecap="butt" stroke-linejoin="miter" stroke="rgb(0%, 0%, 0%)" stroke-opacity="1" stroke-miterlimit="10" d="M 79.372775 55.277567 C 87.876612 52.442954 87.876612 46.77373 79.372775 43.939117 " transform="matrix(0.996333, 0, 0, -0.996333, 4.367477, 72.19207)"/>
<path fill="none" stroke-width="0.79701" stroke-linecap="butt" stroke-linejoin="miter" stroke="rgb(0%, 0%, 0%)" stroke-opacity="1" stroke-miterlimit="10" d="M 79.372775 43.939117 C 87.876612 41.104505 87.876612 35.43528 79.372775 32.596747 " transform="matrix(0.996333, 0, 0, -0.996333, 4.367477, 72.19207)"/>
<path fill="none" stroke-width="0.79701" stroke-linecap="butt" stroke-linejoin="miter" stroke="rgb(0%, 0%, 0%)" stroke-opacity="1" stroke-miterlimit="10" d="M 79.372775 32.596747 C 87.876612 29.766056 87.876612 24.096831 79.372775 21.258298 " transform="matrix(0.996333, 0, 0, -0.996333, 4.367477, 72.19207)"/>
<path fill="none" stroke-width="0.79701" stroke-linecap="butt" stroke-linejoin="miter" stroke="rgb(0%, 0%, 0%)" stroke-opacity="1" stroke-miterlimit="10" d="M 79.372775 21.258298 L 79.372775 0.000665948 " transform="matrix(0.996333, 0, 0, -0.996333, 4.367477, 72.19207)"/>
<g fill="rgb(0%, 0%, 0%)" fill-opacity="1">
<use xlink:href="#glyph-0-1" x="63.101596" y="41.692174"/>
</g>
<path fill="none" stroke-width="0.79701" stroke-linecap="butt" stroke-linejoin="miter" stroke="rgb(0%, 0%, 0%)" stroke-opacity="1" stroke-miterlimit="10" d="M 124.726573 68.031362 L 124.726573 55.277567 " transform="matrix(0.996333, 0, 0, -0.996333, 4.367477, 72.19207)"/>
<path fill="none" stroke-width="0.79701" stroke-linecap="butt" stroke-linejoin="miter" stroke="rgb(0%, 0%, 0%)" stroke-opacity="1" stroke-miterlimit="10" d="M 124.726573 55.277567 L 130.395797 51.023688 L 119.057348 45.354463 L 130.395797 39.685239 L 119.057348 34.016014 L 130.395797 28.346789 L 124.726573 24.096831 " transform="matrix(0.996333, 0, 0, -0.996333, 4.367477, 72.19207)"/>
<path fill="none" stroke-width="0.79701" stroke-linecap="butt" stroke-linejoin="miter" stroke="rgb(0%, 0%, 0%)" stroke-opacity="1" stroke-miterlimit="10" d="M 124.726573 24.096831 L 124.726573 0.000665948 " transform="matrix(0.996333, 0, 0, -0.996333, 4.367477, 72.19207)"/>
<g fill="rgb(0%, 0%, 0%)" fill-opacity="1">
<use xlink:href="#glyph-0-2" x="139.402068" y="41.692174"/>
</g>
<path fill="none" stroke-width="0.79701" stroke-linecap="butt" stroke-linejoin="miter" stroke="rgb(0%, 0%, 0%)" stroke-opacity="1" stroke-miterlimit="10" d="M 143.149592 48.189076 L 143.149592 22.434486 " transform="matrix(0.996333, 0, 0, -0.996333, 4.367477, 72.19207)"/>
<path fill-rule="nonzero" fill="rgb(0%, 0%, 0%)" fill-opacity="1" d="M 146.992188 52.421875 L 149.058594 48.292969 L 146.992188 49.839844 L 144.929688 48.292969 "/>
<g fill="rgb(0%, 0%, 0%)" fill-opacity="1">
<use xlink:href="#glyph-0-3" x="154.935752" y="40.782273"/>
</g>
<g fill="rgb(0%, 0%, 0%)" fill-opacity="1">
<use xlink:href="#glyph-1-0" x="160.103304" y="40.782273"/>
</g>
<g fill="rgb(0%, 0%, 0%)" fill-opacity="1">
<use xlink:href="#glyph-0-4" x="163.963468" y="40.782273"/>
</g>
<g fill="rgb(0%, 0%, 0%)" fill-opacity="1">
<use xlink:href="#glyph-1-1" x="167.547917" y="40.782273"/>
</g>
</svg>
